<?xml version="1.0" standalone="no"?>
<!DOCTYPE svg PUBLIC "-//W3C//DTD SVG 20010904//EN"
 "http://www.w3.org/TR/2001/REC-SVG-20010904/DTD/svg10.dtd">
<svg version="1.0" xmlns="http://www.w3.org/2000/svg"
 width="1267.000000pt" height="356.000000pt" viewBox="0 0 1267.000000 356.000000"
 preserveAspectRatio="xMidYMid meet">
<metadata>
Created by potrace 1.16, written by Peter Selinger 2001-2019
</metadata>
<g transform="translate(0.000000,356.000000) scale(0.100000,-0.100000)"
fill="#000000" stroke="none">
<path d="M560 3510 l0 -50 -115 0 -115 0 0 -115 0 -115 -110 0 -110 0 0 -455
0 -455 55 0 55 0 0 -110 0 -110 -55 0 -55 0 0 -225 0 -225 -55 0 -55 0 0 -345
0 -345 55 0 55 0 0 -60 0 -60 110 0 110 0 0 -220 0 -220 -55 0 -55 0 0 -175 0
-175 55 0 c52 0 55 -1 55 -25 l0 -25 175 0 175 0 0 25 c0 24 3 25 60 25 l60 0
0 55 0 55 105 0 105 0 0 -55 0 -55 60 0 c57 0 60 -1 60 -25 l0 -25 175 0 175
0 0 25 c0 24 3 25 55 25 l55 0 0 175 0 175 -55 0 -55 0 0 220 0 220 110 0 110
0 0 60 0 60 60 0 60 0 0 345 0 345 -60 0 -60 0 0 790 0 790 -110 0 -110 0 0
60 0 60 -60 0 -60 0 0 55 0 55 -110 0 -110 0 0 50 0 50 -290 0 -290 0 0 -50z
m600 -1072 c0 7 13 12 30 12 17 0 30 -5 30 -12 0 -9 4 -8 10 2 6 10 10 11 10
3 0 -8 14 -13 35 -13 32 0 35 -2 35 -30 0 -28 -3 -30 -37 -31 l-38 -2 40 -7
40 -7 -40 -3 -40 -3 38 -4 c33 -4 37 -7 37 -34 0 -26 -3 -29 -30 -29 -26 0
-30 4 -31 28 l-2 27 -4 -27 c-4 -25 -8 -28 -44 -28 -33 0 -39 3 -40 23 l-2 22
-4 -22 c-4 -19 -11 -23 -44 -23 -32 0 -39 3 -39 20 0 16 7 20 30 20 31 0 34 5
31 55 -1 17 1 41 4 54 5 20 8 22 16 10 6 -9 9 -10 9 -1z"/>
<path d="M7810 3510 l0 -50 -115 0 -115 0 0 -115 0 -115 -110 0 -110 0 0 -455
0 -455 55 0 55 0 0 -110 0 -110 -55 0 -55 0 0 -225 0 -225 -60 0 -60 0 0 -345
0 -345 60 0 60 0 0 -60 0 -60 110 0 110 0 0 -220 0 -220 -55 0 -55 0 0 -175 0
-175 55 0 c52 0 55 -1 55 -25 l0 -25 175 0 175 0 0 25 c0 24 3 25 60 25 l60 0
0 55 0 55 105 0 105 0 0 -55 0 -55 60 0 c57 0 60 -1 60 -25 l0 -25 175 0 175
0 0 25 c0 24 3 25 55 25 l55 0 0 175 0 175 -55 0 -55 0 0 220 0 220 110 0 110
0 0 60 0 60 60 0 60 0 0 345 0 345 -60 0 -60 0 0 790 0 790 -110 0 -110 0 0
60 0 60 -60 0 -60 0 0 55 0 55 -110 0 -110 0 0 50 0 50 -290 0 -290 0 0 -50z
m591 -1072 c0 -10 2 -10 6 0 6 14 83 17 83 2 0 -5 16 -10 35 -10 32 0 35 -2
35 -30 0 -28 -3 -30 -37 -31 l-38 -2 40 -7 40 -7 -40 -3 -40 -3 38 -4 c33 -4
37 -7 37 -34 0 -26 -3 -29 -30 -29 -26 0 -30 4 -31 28 l-2 27 -4 -27 c-4 -25
-8 -28 -44 -28 -33 0 -39 3 -40 23 l-2 22 -4 -22 c-4 -19 -11 -23 -44 -23 -32
0 -39 3 -39 20 0 16 7 20 30 20 32 0 32 -1 32 78 0 28 4 52 9 52 5 0 9 -6 10
-12z"/>
<path d="M4190 3405 l0 -55 -115 0 -115 0 0 -115 0 -115 -115 0 -115 0 0 -460
0 -460 60 0 60 0 0 -105 0 -105 -60 0 -60 0 0 -230 0 -230 -55 0 -55 0 0 -230
0 -230 55 0 55 0 0 -55 0 -55 115 0 115 0 0 -225 0 -225 -55 0 -55 0 0 -175 0
-175 55 0 55 0 0 -55 0 -55 175 0 175 0 0 55 0 55 55 0 55 0 0 60 0 60 60 0
60 0 0 55 0 55 50 0 50 0 0 -55 0 -55 175 0 175 0 0 55 0 55 55 0 55 0 0 285
0 285 115 0 115 0 0 55 0 55 55 0 55 0 0 230 0 230 -55 0 -55 0 0 795 0 795
-115 0 -115 0 0 55 0 55 -55 0 -55 0 0 60 0 60 -115 0 -115 0 0 55 0 55 -285
0 -285 0 0 -55z m631 -1077 c0 -10 2 -10 6 0 2 6 18 12 34 12 26 0 29 -4 29
-30 0 -17 -5 -30 -12 -31 -10 0 -10 -2 0 -6 7 -2 12 -22 12 -44 0 -37 -2 -39
-30 -39 -17 0 -30 5 -31 13 0 10 -2 10 -6 0 -6 -16 -83 -17 -83 -2 0 5 5 7 10
4 6 -4 10 20 10 64 l0 71 30 0 c17 0 30 -5 31 -12z"/>
<path d="M11440 3405 l0 -55 -115 0 -115 0 0 -115 0 -115 -115 0 -115 0 0
-460 0 -460 60 0 60 0 0 -105 0 -105 -60 0 -60 0 0 -230 0 -230 -55 0 -55 0 0
-230 0 -230 55 0 55 0 0 -55 0 -55 115 0 115 0 0 -285 0 -285 55 0 55 0 0 -55
0 -55 175 0 175 0 0 55 0 55 55 0 55 0 0 -55 0 -55 55 0 55 0 0 -60 0 -60 55
0 55 0 0 -55 0 -55 175 0 175 0 0 55 0 54 58 3 57 3 3 172 2 173 -60 0 -60 0
0 225 0 225 115 0 115 0 0 55 0 55 45 0 45 0 0 230 0 230 -45 0 -45 0 0 795 0
795 -115 0 -115 0 0 55 0 55 -55 0 -55 0 0 60 0 60 -115 0 -115 0 0 55 0 55
-285 0 -285 0 0 -55z m631 -1077 c0 -10 2 -10 6 0 2 7 22 12 44 12 37 0 39 -2
39 -30 0 -24 -4 -30 -22 -31 l-23 -2 23 -4 c18 -4 22 -11 22 -44 0 -39 0 -39
-40 -39 -25 0 -40 5 -41 13 0 10 -2 10 -6 0 -6 -16 -83 -17 -83 -2 0 5 5 7 10
4 6 -4 10 20 10 64 l0 71 30 0 c17 0 30 -5 31 -12z"/>
</g>
</svg>
