<?xml version="1.0" encoding="UTF-8"?>
<svg id="Layer_2" data-name="Layer 2" xmlns="http://www.w3.org/2000/svg" viewBox="0 0 8100.19 8100.19">
  <defs>
    <style>
      .cls-1 {
        fill: #8c8c8c;
      }

      .cls-1, .cls-2 {
        stroke-width: 0px;
      }

      .cls-2 {
        fill: #4d4e4f;
      }
    </style>
  </defs>
  <g id="Layer_8" data-name="Layer 8">
    <g>
      <path class="cls-1" d="M4050.09,7919.19c-262.63,0-525.04-26.45-779.95-78.61-248.33-50.82-492.6-126.64-726.02-225.37-229.22-96.95-450.32-216.96-657.15-356.69-204.91-138.44-397.61-297.43-572.74-472.56-175.13-175.13-334.12-367.83-472.56-572.74-139.73-206.83-259.74-427.93-356.69-657.15-98.73-233.42-174.55-477.69-225.37-726.02-52.16-254.91-78.61-517.32-78.61-779.95s26.45-525.04,78.61-779.95c50.82-248.33,126.64-492.6,225.37-726.02,96.95-229.22,216.96-450.32,356.69-657.15,138.44-204.91,297.43-397.61,472.56-572.74s367.83-334.12,572.74-472.56c206.83-139.73,427.93-259.74,657.15-356.69,233.42-98.73,477.69-174.55,726.02-225.37,254.91-52.16,517.32-78.61,779.95-78.61s525.04,26.45,779.95,78.61c248.33,50.82,492.6,126.64,726.02,225.37,229.22,96.95,450.32,216.96,657.15,356.69,204.92,138.44,397.61,297.43,572.74,472.56,175.13,175.13,334.12,367.83,472.56,572.74,139.73,206.83,259.74,427.93,356.69,657.15,98.73,233.42,174.55,477.69,225.37,726.02,52.16,254.91,78.61,517.32,78.61,779.95s-26.45,525.04-78.61,779.95c-50.82,248.33-126.64,492.6-225.37,726.02-96.95,229.22-216.96,450.32-356.69,657.15-138.44,204.92-297.43,397.61-472.56,572.74-175.13,175.13-367.83,334.12-572.74,472.56-206.83,139.73-427.93,259.74-657.15,356.69-233.42,98.73-477.69,174.55-726.02,225.37-254.91,52.16-517.32,78.61-779.95,78.61Z"/>
      <path class="cls-2" d="M4050.09,362c125.99,0,253,6.41,377.52,19.06,122.61,12.45,245.8,31.25,366.14,55.88,236.63,48.42,469.38,120.67,691.8,214.75,218.46,92.4,429.19,206.78,626.33,339.97,195.37,131.99,379.1,283.58,546.08,450.56s318.58,350.71,450.56,546.08c133.19,197.15,247.57,407.88,339.97,626.33,94.07,222.41,166.32,455.17,214.75,691.8,24.62,120.34,43.42,243.53,55.88,366.14,12.65,124.52,19.06,251.54,19.06,377.52s-6.41,253-19.06,377.52c-12.45,122.61-31.25,245.8-55.88,366.14-48.42,236.63-120.67,469.38-214.75,691.8-92.4,218.46-206.78,429.19-339.97,626.33-131.99,195.37-283.58,379.1-450.56,546.08-166.98,166.98-350.71,318.58-546.08,450.56-197.15,133.19-407.88,247.57-626.33,339.97-222.41,94.07-455.17,166.32-691.8,214.75-120.34,24.62-243.53,43.42-366.14,55.88-124.52,12.65-251.54,19.06-377.52,19.06s-253-6.41-377.52-19.06c-122.61-12.45-245.8-31.25-366.14-55.88-236.63-48.42-469.38-120.67-691.8-214.75-218.46-92.4-429.19-206.78-626.33-339.97-195.37-131.99-379.1-283.58-546.08-450.56-166.98-166.98-318.58-350.71-450.56-546.08-133.19-197.15-247.57-407.88-339.97-626.33-94.07-222.41-166.32-455.17-214.75-691.8-24.62-120.34-43.42-243.53-55.88-366.14-12.65-124.52-19.06-251.54-19.06-377.52s6.41-253,19.06-377.52c12.45-122.61,31.25-245.8,55.88-366.14,48.42-236.63,120.67-469.38,214.75-691.8,92.4-218.46,206.78-429.19,339.97-626.33,131.99-195.37,283.58-379.1,450.56-546.08,166.98-166.98,350.71-318.58,546.08-450.56,197.15-133.19,407.88-247.57,626.33-339.97,222.41-94.07,455.17-166.32,691.8-214.75,120.34-24.62,243.53-43.42,366.14-55.88,124.52-12.65,251.54-19.06,377.52-19.06M4050.09,0C1813.29,0,0,1813.29,0,4050.09s1813.29,4050.09,4050.09,4050.09,4050.09-1813.29,4050.09-4050.09S6286.9,0,4050.09,0h0Z"/>
    </g>
  </g>
</svg>